<svg xmlns="http://www.w3.org/2000/svg" viewBox="0 0 32 32" width="32" height="32">
  <defs>
    <linearGradient id="g" x1="0" y1="0" x2="0" y2="1">
      <stop offset="0" stop-color="#79f8a0"/>
      <stop offset="1" stop-color="#3ad972"/>
    </linearGradient>
  </defs>
  <rect width="32" height="32" rx="8" fill="url(#g)"/>
  <g transform="translate(4 4)" fill="#03130a">
    <path d="M12 2.5c-1.6 2.6-3.8 4.6-5.6 6.1-1.7 1.5-2.9 3-2.9 4.9 0 2.5 2 4.5 4.5 4.5 1.3 0 2.4-.5 3.2-1.4l-.7 4.2h3l-.7-4.2c.8.9 1.9 1.4 3.2 1.4 2.5 0 4.5-2 4.5-4.5 0-1.9-1.2-3.4-2.9-4.9C15.8 7.1 13.6 5.1 12 2.5z"/>
  </g>
</svg>
